<svg width="169" height="100" viewBox="0 0 169 100" fill="none" xmlns="http://www.w3.org/2000/svg">
<path fill-rule="evenodd" clip-rule="evenodd" d="M153.73 4.7043C153.73 1.5681 155.522 0 159.106 0C161.705 0 163.497 1.74731 164.483 5.24193C165.737 9.54301 166.543 12.7688 166.902 14.9194C167.798 21.9982 168.246 27.5986 168.246 31.7204C168.246 36.5591 167.798 41.9355 166.902 47.8495C165.558 56.0036 162.914 60.0807 158.972 60.0807C155.746 60.0807 154.133 58.4678 154.133 55.2419C154.133 54.6147 154.223 53.9875 154.402 53.3602C156.552 47.6255 157.628 40.5466 157.628 32.1237C157.628 21.9086 156.373 12.948 153.864 5.24193C153.775 5.06272 153.73 4.88351 153.73 4.7043ZM118.189 21.6398C105.734 21.6398 99.5065 27.8674 99.5065 40.3226C99.5065 53.2258 105.868 59.6774 118.593 59.6774C131.227 59.6774 137.544 53.2258 137.544 40.3226C137.544 27.8674 131.093 21.6398 118.189 21.6398ZM118.324 50.1344C112.141 50.1344 109.049 46.9534 109.049 40.5914C109.049 34.319 112.275 31.1828 118.727 31.1828C124.91 31.1828 128.001 34.319 128.001 40.5914C128.001 46.9534 124.775 50.1344 118.324 50.1344ZM133.781 70.1613C133.422 70.1613 133.109 70.1165 132.84 70.0269C130.689 70.6541 129.614 72.2222 129.614 74.7312C129.614 75.3584 129.659 75.7168 129.748 75.8064L132.571 93.5484C133.019 96.0573 134.766 97.6702 137.813 98.3871C139.247 98.4767 140.68 98.5215 142.114 98.5215C146.236 98.5215 149.551 98.3871 152.06 98.1183C157.974 96.5054 160.931 90.6362 160.931 80.5107C160.931 71.9982 156.585 67.7419 147.894 67.7419C145.474 67.7419 143.279 68.0107 141.308 68.5484C137.992 69.6236 135.483 70.1613 133.781 70.1613ZM139.829 79.8387V79.5699C139.829 77.8674 142.428 77.0161 147.625 77.0161C150.134 77.0161 151.388 78.2258 151.388 80.6452C151.388 86.1111 150.537 88.8441 148.834 88.8441H141.308L139.829 79.8387ZM54.1667 65.1881C62.4104 64.8297 71.5502 62.7688 81.586 59.0054C82.1237 58.7365 82.5717 58.6021 82.9301 58.6021C85.4391 58.6021 86.6936 60.2598 86.6936 63.5753C86.6936 66.8011 83.0645 69.4444 75.8065 71.5054C74.3313 71.9366 73.0847 72.3333 71.9464 72.6955C68.5903 73.7634 66.1763 74.5316 61.6264 75L60.8199 75.2688V94.6236C60.8199 98.0287 55.466 99.7312 52.1506 99.7312C49.104 99.7312 47.4911 97.4462 47.3118 92.8763V92.0699V91.9355V91.129V90.7258V90.5914V86.6935C47.2222 82.9301 47.1326 79.2115 47.043 75.5376H39.785V95.1613C39.785 98.3871 38.1721 100 34.9462 100C31.7204 100 26.1481 97.715 26.0585 93.1452V92.8763V92.7419V90.9946V90.8602V89.7849V89.6505V86.9624V86.8279V86.4247V86.2903V86.0215V85.8871V84.543C25.9689 83.8262 25.9241 83.1093 25.9241 82.3925V81.7204V81.586V81.3172V81.1828V81.0484V79.5699C25.8345 78.0466 25.7897 76.5233 25.7897 75V74.5968C19.053 73.8565 14.6214 72.4434 8.07981 70.3576C6.70335 69.9187 5.23346 69.4501 3.62903 68.9516C1.20968 68.1451 0 66.4426 0 63.8441C0 60.6183 1.20968 59.0054 3.62903 59.0054H3.76344H3.89785H4.03226C18.1004 63.2168 31.9893 65.3226 45.6989 65.3226C48.5663 65.3226 51.3889 65.2778 54.1667 65.1881ZM16.129 14.1135C16.129 9.85683 17.8283 7.72849 21.2267 7.72849H60.5513C64.1925 7.72849 66.0131 10.5257 66.0131 16.1202C66.0131 20.7418 62.4933 27.0052 55.4537 34.9105V35.0929C55.4537 35.3362 55.6357 35.5186 55.9999 35.6402C59.641 38.1942 63.2215 40.9307 66.7413 43.8495C69.2901 45.9171 70.5645 47.9846 70.5645 50.0522C70.5645 54.4305 68.3798 56.6196 64.0104 56.6196C62.3112 56.6196 60.7941 56.0723 59.459 54.9777L45.0763 44.5793H44.5302C44.0447 44.5793 43.6199 44.7009 43.2558 44.9441C40.3428 46.89 38.0974 48.2887 36.5196 49.14C29.8441 53.0318 25.2927 54.9777 22.8652 54.9777C18.6172 54.9777 16.4932 52.7886 16.4932 48.4103C16.4932 45.7347 17.6462 43.7887 19.9523 42.5725C23.8362 40.7482 26.6884 39.3496 28.509 38.3767C30.6937 37.1605 33.2425 35.4578 36.1555 33.2686C42.5882 28.7687 46.9576 24.6944 49.2637 21.0458H24.6858C18.9813 21.0458 16.129 18.7351 16.129 14.1135Z" fill="#262E39"/>
</svg>
